<svg width="57" height="58" viewBox="0 0 57 58" fill="none" xmlns="http://www.w3.org/2000/svg">
<circle cx="28.5" cy="28.9998" r="28.1" stroke="#6F4E37" stroke-width="0.8"/>
<path d="M36.5156 20.9352C36.5156 25.3621 32.9269 28.9508 28.5 28.9508C24.0731 28.9508 20.4844 25.3621 20.4844 20.9352C20.4844 16.5083 24.0731 12.9196 28.5 12.9196C32.9269 12.9196 36.5156 16.5083 36.5156 20.9352Z" fill="#6F4E37"/>
<mask id="path-3-inside-1_126_85" fill="white">
<path d="M28.5002 33.5598C38.0777 33.5599 46.5516 38.2842 51.719 45.5295C46.5516 52.775 38.0778 57.5002 28.5002 57.5002C18.9227 57.5002 10.4489 52.775 5.28149 45.5295C10.449 38.2843 18.9228 33.5598 28.5002 33.5598Z"/>
</mask>
<path d="M28.5002 33.5598C38.0777 33.5599 46.5516 38.2842 51.719 45.5295C46.5516 52.775 38.0778 57.5002 28.5002 57.5002C18.9227 57.5002 10.4489 52.775 5.28149 45.5295C10.449 38.2843 18.9228 33.5598 28.5002 33.5598Z" fill="#6F4E37"/>
<path d="M28.5002 33.5598L28.5002 32.7598H28.5002V33.5598ZM51.719 45.5295L52.3703 45.9941L52.7016 45.5295L52.3703 45.065L51.719 45.5295ZM28.5002 57.5002V58.3002H28.5002L28.5002 57.5002ZM5.28149 45.5295L4.63018 45.065L4.29887 45.5295L4.63017 45.9941L5.28149 45.5295ZM28.5002 33.5598L28.5002 34.3598C37.8082 34.3599 46.0439 38.9502 51.0677 45.9941L51.719 45.5295L52.3703 45.065C47.0592 37.6183 38.3472 32.7599 28.5002 32.7598L28.5002 33.5598ZM51.719 45.5295L51.0677 45.065C46.0439 52.1091 37.8083 56.7002 28.5002 56.7002L28.5002 57.5002L28.5002 58.3002C38.3474 58.3002 47.0593 53.441 52.3703 45.9941L51.719 45.5295ZM28.5002 57.5002V56.7002C19.1922 56.7002 10.9566 52.1091 5.93282 45.065L5.28149 45.5295L4.63017 45.9941C9.94127 53.4409 18.6531 58.3002 28.5002 58.3002V57.5002ZM5.28149 45.5295L5.93281 45.9941C10.9566 38.9503 19.1923 34.3598 28.5002 34.3598V33.5598V32.7598C18.6533 32.7598 9.94132 37.6183 4.63018 45.065L5.28149 45.5295Z" fill="#6F4E37" mask="url(#path-3-inside-1_126_85)"/>
</svg>
