<svg width="56" height="61" viewBox="0 0 56 61" fill="none" xmlns="http://www.w3.org/2000/svg">
<mask id="path-1-outside-1_176_111" maskUnits="userSpaceOnUse" x="0.317505" y="19.0029" width="56" height="42" fill="black">
<rect fill="white" x="0.317505" y="19.0029" width="56" height="42"/>
<path d="M28.9865 20.0029C43.4824 20.003 54.84 22.9414 54.84 26.5654C54.8399 26.8828 54.7509 27.1937 54.5822 27.499L50.7335 45.2412C49.9729 53.2057 40.5677 59.5 29.0753 59.5C17.8105 59.4999 8.55014 53.4522 7.4718 45.7119L2.01477 28.1885L2.17297 28.1406C1.61721 27.6341 1.31767 27.1056 1.3175 26.5605C1.3175 22.9365 14.4904 20.0029 28.9865 20.0029Z"/>
</mask>
<path d="M28.9865 20.0029C43.4824 20.003 54.84 22.9414 54.84 26.5654C54.8399 26.8828 54.7509 27.1937 54.5822 27.499L50.7335 45.2412C49.9729 53.2057 40.5677 59.5 29.0753 59.5C17.8105 59.4999 8.55014 53.4522 7.4718 45.7119L2.01477 28.1885L2.17297 28.1406C1.61721 27.6341 1.31767 27.1056 1.3175 26.5605C1.3175 22.9365 14.4904 20.0029 28.9865 20.0029Z" fill="#EDE4CC"/>
<path d="M28.9865 20.0029L28.9865 19.2029H28.9865V20.0029ZM54.84 26.5654L55.64 26.5656V26.5654H54.84ZM54.5822 27.499L53.882 27.1121L53.8252 27.2148L53.8003 27.3294L54.5822 27.499ZM50.7335 45.2412L49.9517 45.0716L49.9417 45.118L49.9371 45.1652L50.7335 45.2412ZM29.0753 59.5L29.0753 60.3H29.0753V59.5ZM7.4718 45.7119L8.26415 45.6015L8.25511 45.5366L8.23562 45.4741L7.4718 45.7119ZM2.01477 28.1885L1.78316 27.4227L1.01113 27.6563L1.25095 28.4263L2.01477 28.1885ZM2.17297 28.1406L2.40459 28.9064L3.75321 28.4984L2.71186 27.5494L2.17297 28.1406ZM1.3175 26.5605H0.517505L0.517505 26.5608L1.3175 26.5605ZM28.9865 20.0029L28.9864 20.8029C36.1889 20.8029 42.5823 21.5338 47.1513 22.7003C49.4418 23.2852 51.2284 23.9683 52.4232 24.6947C53.664 25.4491 54.04 26.1045 54.04 26.5654H54.84H55.64C55.64 25.2143 54.5962 24.1434 53.2545 23.3276C51.8667 22.4838 49.9079 21.7528 47.5471 21.1501C42.8133 19.9414 36.28 19.2029 28.9865 19.2029L28.9865 20.0029ZM54.84 26.5654L54.04 26.5652C54.0399 26.7269 53.9959 26.906 53.882 27.1121L54.5822 27.499L55.2823 27.886C55.5059 27.4815 55.6399 27.0386 55.64 26.5656L54.84 26.5654ZM54.5822 27.499L53.8003 27.3294L49.9517 45.0716L50.7335 45.2412L51.5153 45.4108L55.364 27.6686L54.5822 27.499ZM50.7335 45.2412L49.9371 45.1652C49.586 48.8422 47.23 52.2137 43.4874 54.6901C39.7489 57.1637 34.6815 58.7 29.0753 58.7V59.5V60.3C34.9615 60.3 40.3429 58.6891 44.3702 56.0245C48.3934 53.3625 51.1204 49.6047 51.5299 45.3173L50.7335 45.2412ZM29.0753 59.5L29.0753 58.7C23.5805 58.6999 18.6024 57.2239 14.8861 54.8355C11.1651 52.4441 8.76254 49.179 8.26415 45.6015L7.4718 45.7119L6.67945 45.8223C7.2594 49.9851 10.0262 53.614 14.0211 56.1815C18.0208 58.752 23.3053 60.2999 29.0753 60.3L29.0753 59.5ZM7.4718 45.7119L8.23562 45.4741L2.77859 27.9506L2.01477 28.1885L1.25095 28.4263L6.70798 45.9498L7.4718 45.7119ZM2.01477 28.1885L2.24638 28.9542L2.40459 28.9064L2.17297 28.1406L1.94136 27.3749L1.78316 27.4227L2.01477 28.1885ZM2.17297 28.1406L2.71186 27.5494C2.24203 27.1211 2.11758 26.7908 2.1175 26.5603L1.3175 26.5605L0.517505 26.5608C0.517769 27.4204 0.992382 28.147 1.63408 28.7319L2.17297 28.1406ZM1.3175 26.5605H2.1175C2.1175 26.3667 2.2023 26.1078 2.50359 25.7766C2.80845 25.4416 3.29397 25.0806 3.98069 24.7119C5.35256 23.9753 7.37435 23.2882 9.89704 22.702C14.9299 21.5324 21.7844 20.8029 28.9865 20.8029V20.0029V19.2029C21.6925 19.2029 14.7125 19.9403 9.53487 21.1435C6.95234 21.7437 4.7749 22.4694 3.22385 23.3022C2.44911 23.7182 1.79225 24.1809 1.32009 24.6999C0.844358 25.2228 0.517505 25.8484 0.517505 26.5605H1.3175Z" fill="#6F4E37" mask="url(#path-1-outside-1_176_111)"/>
<path d="M27.5649 20.3987C38.4948 20.3987 45.5604 21.0795 49.8823 22.2258C52.0444 22.7993 53.4846 23.48 54.3774 24.2219C55.2553 24.9515 55.6 25.734 55.6001 26.5598C55.6001 27.2895 54.9709 28.1262 53.5405 28.9866C52.1414 29.8281 50.1006 30.6144 47.5728 31.2883C42.5225 32.6347 35.6113 33.509 28.2124 33.509C20.8132 33.509 14.1265 32.6345 9.30225 31.2893C6.88753 30.616 4.96083 29.8304 3.64697 28.9915C2.30967 28.1375 1.71826 27.3023 1.71826 26.5598C1.71843 25.816 2.27191 25.0298 3.53857 24.2551C4.78858 23.4906 6.63233 22.8026 8.96729 22.2268C13.6309 21.0768 20.1583 20.3987 27.5649 20.3987Z" fill="#6F4E37" stroke="#6F4E37" stroke-width="0.8"/>
<path d="M26.416 9.91903C32.444 6.20952 32.7531 3.89107 32.9077 2.5C35.6898 10.3827 32.444 10.3827 28.2708 14.0922C25.1096 16.9022 23.6339 20.7385 23.6339 21.975C27.3434 23.366 28.7345 23.8297 32.444 23.8297C36.1535 23.8297 37.5446 25.1706 37.5446 26.1482C37.5446 26.6119 37.6927 28.834 33.835 28.4666C24.0976 27.5392 23.1702 23.8297 23.6339 21.975C15.7512 17.8018 23.5278 11.6964 26.416 9.91903Z" fill="#EDE4CC"/>
<path d="M23.6339 21.975C15.7512 17.8018 23.5278 11.6964 26.416 9.91903C32.444 6.20952 32.7531 3.89107 32.9077 2.5C35.6898 10.3827 32.444 10.3827 28.2708 14.0922C25.1096 16.9022 23.6339 20.7385 23.6339 21.975ZM23.6339 21.975C23.1702 23.8297 24.0976 27.5392 33.835 28.4666C37.6927 28.834 37.5446 26.6119 37.5446 26.1482C37.5446 25.1706 36.1535 23.8297 32.444 23.8297C28.7345 23.8297 27.3434 23.366 23.6339 21.975Z" stroke="#6F4E37" stroke-width="0.8" stroke-miterlimit="16"/>
</svg>
