<svg width="56" height="60" viewBox="0 0 56 60" fill="none" xmlns="http://www.w3.org/2000/svg">
<path d="M30.5664 18.7119C37.3112 18.7975 43.3306 19.5173 47.7686 20.6504C50.1291 21.2531 52.0879 21.9835 53.4756 22.8271C54.7335 23.592 55.7301 24.5815 55.8496 25.8154L55.8613 26.0654C55.8612 26.4934 55.7499 26.896 55.5635 27.2686L51.7432 44.8809C51.3129 49.1418 48.595 52.8757 44.5918 55.5244C40.6904 58.1058 35.5183 59.6978 29.8477 59.7949L29.2969 59.7998C23.5269 59.7997 18.2419 58.2522 14.2422 55.6816C10.2709 53.1292 7.51414 49.5276 6.91211 45.3955L1.47266 27.9268L1.42969 27.7881C1.04935 27.3325 0.784979 26.8096 0.744141 26.2207L0.739258 26.0605C0.739258 25.3484 1.06627 24.7231 1.54199 24.2002C2.01416 23.6812 2.67059 23.2177 3.44531 22.8018C4.99636 21.969 7.17437 21.2437 9.75684 20.6436C12.9318 19.9058 16.7845 19.3444 20.9717 19.0195C21.1264 19.2752 21.3166 19.5283 21.5459 19.7783C10.3797 20.5872 1.53906 23.0917 1.53906 26.0605C1.53923 26.6056 1.83876 27.1341 2.39453 27.6406L2.23633 27.6885L7.69336 45.2119C8.7717 52.9522 18.032 58.9998 29.2969 59C40.7892 59 50.1944 52.7057 50.9551 44.7412L54.8037 26.999C54.9724 26.6937 55.0614 26.3828 55.0615 26.0654C55.0615 22.4414 43.7039 19.503 29.208 19.5029C27.5534 19.5029 25.916 19.5421 24.3135 19.6152C24.4119 19.3571 24.5273 19.0843 24.6582 18.7998C26.1517 18.737 27.6729 18.7031 29.208 18.7031L30.5664 18.7119Z" fill="#6F4E37"/>
<path d="M23.5605 21.4694C15.3785 17.2974 23.4504 11.1938 26.4482 9.41692C32.705 5.70846 33.0259 3.39067 33.1863 2C36.074 9.88047 32.705 9.88047 28.3734 13.5889C25.0922 16.3981 23.5605 20.2333 23.5605 21.4694ZM23.5605 21.4694C23.0792 23.3236 24.0418 27.0321 34.1489 27.9592C38.0244 28.3147 38.0048 26.2449 37.9996 25.6913C37.9994 25.673 37.9992 25.6563 37.9992 25.6414C37.9992 24.6642 36.5553 23.3236 32.705 23.3236C28.8547 23.3236 27.4108 22.8601 23.5605 21.4694Z" stroke="#6F4E37" stroke-width="0.8" stroke-miterlimit="16"/>
<path d="M27.248 19C49.1205 19 55.6825 21.8185 55.6826 25.7979C55.6826 29.7772 42.7476 33.4111 27.8945 33.4111C13.0414 33.4111 1 29.7772 1 25.7979C1.00017 22.4022 9.29725 19.8528 20.96 19.1777C21.5279 19.8701 22.3721 20.5411 23.5605 21.1689C23.5606 20.7282 23.7436 19.9693 24.1152 19.0439C25.1398 19.0157 26.1852 19 27.248 19ZM23.5605 21.1689C23.0793 23.0898 24.0417 26.9321 34.1484 27.8926C38.0238 28.2608 38.0053 26.1166 38 25.543L37.999 25.4912C37.999 24.4788 36.5554 23.0899 32.7051 23.0898C28.8547 23.0898 27.4109 22.6096 23.5605 21.1689Z" fill="#6F4E37"/>
</svg>
