<svg width="59" height="60" viewBox="0 0 59 60" fill="none" xmlns="http://www.w3.org/2000/svg">
<circle cx="29.5" cy="30" r="29" stroke="#463B34"/>
<circle cx="29.5" cy="30" r="28.5" fill="#ACD0D6"/>
<mask id="path-3-outside-1_126_4" maskUnits="userSpaceOnUse" x="2.28159" y="35.2736" width="54" height="24" fill="black">
<rect fill="white" x="2.28159" y="35.2736" width="54" height="24"/>
<path d="M29.3206 36.2736C39.6657 36.2736 49.0069 38.2121 55.6585 41.3263C51.2774 51.4308 41.2152 58.5 29.5003 58.5001C17.7318 58.5001 7.63048 51.3662 3.28159 41.1876C9.91269 38.1545 19.1296 36.2736 29.3206 36.2736Z"/>
</mask>
<path d="M29.3206 36.2736C39.6657 36.2736 49.0069 38.2121 55.6585 41.3263C51.2774 51.4308 41.2152 58.5 29.5003 58.5001C17.7318 58.5001 7.63048 51.3662 3.28159 41.1876C9.91269 38.1545 19.1296 36.2736 29.3206 36.2736Z" fill="#536654"/>
<path d="M29.3206 36.2736V35.8736V36.2736ZM55.6585 41.3263L56.0255 41.4854L56.1801 41.1288L55.8281 40.964L55.6585 41.3263ZM29.5003 58.5001V58.9001H29.5003L29.5003 58.5001ZM3.28159 41.1876L3.1152 40.8239L2.76051 40.9861L2.91375 41.3448L3.28159 41.1876ZM29.3206 36.2736V36.6736C39.6218 36.6736 48.9023 38.6048 55.4889 41.6886L55.6585 41.3263L55.8281 40.964C49.1116 37.8195 39.7096 35.8736 29.3206 35.8736V36.2736ZM55.6585 41.3263L55.2915 41.1672C50.9716 51.1307 41.0501 58.1 29.5003 58.1001L29.5003 58.5001L29.5003 58.9001C41.3803 58.9 51.5833 51.7309 56.0255 41.4854L55.6585 41.3263ZM29.5003 58.5001V58.1001C17.8976 58.1001 7.93764 51.067 3.64942 41.0305L3.28159 41.1876L2.91375 41.3448C7.32333 51.6654 17.5659 58.9001 29.5003 58.9001V58.5001ZM3.28159 41.1876L3.44797 41.5514C10.0156 38.5473 19.1732 36.6736 29.3206 36.6736V36.2736V35.8736C19.0861 35.8736 9.80982 37.7617 3.1152 40.8239L3.28159 41.1876Z" fill="#463B34" mask="url(#path-3-outside-1_126_4)"/>
<path d="M18.168 11.5377C19.6198 11.5379 20.7969 12.7148 20.7969 14.1666C20.7969 14.4741 20.7415 14.7684 20.6446 15.0426H20.7969C22.0067 15.0427 22.9873 16.0242 22.9873 17.234C22.9872 18.4437 22.0066 19.4243 20.7969 19.4244H15.5391C15.4298 19.4244 15.3228 19.4125 15.2178 19.3971C15.1078 19.4125 14.9961 19.4244 14.8819 19.4244C13.5509 19.4244 12.4717 18.3452 12.4717 17.0143C12.4719 15.6835 13.5511 14.6051 14.8819 14.6051C15.1304 14.6051 15.3701 14.6426 15.5957 14.7125C15.5585 14.5364 15.5391 14.3538 15.5391 14.1666C15.5391 12.7147 16.7161 11.5377 18.168 11.5377Z" fill="white"/>
<path d="M18.168 11.5377L18.168 11.3377H18.168V11.5377ZM20.7969 14.1666H20.9969V14.1666L20.7969 14.1666ZM20.6446 15.0426L20.456 14.9759L20.3617 15.2426H20.6446V15.0426ZM20.7969 15.0426L20.7969 14.8426H20.7969V15.0426ZM22.9873 17.234L23.1873 17.234V17.234H22.9873ZM20.7969 19.4244V19.6244H20.7969L20.7969 19.4244ZM15.2178 19.3971L15.2469 19.1992L15.2185 19.195L15.1901 19.199L15.2178 19.3971ZM14.8819 19.4244V19.6244H14.8819L14.8819 19.4244ZM12.4717 17.0143L12.2717 17.0143V17.0143H12.4717ZM14.8819 14.6051L14.8819 14.4051H14.8819V14.6051ZM15.5957 14.7125L15.5365 14.9036L15.8618 15.0043L15.7914 14.6712L15.5957 14.7125ZM15.5391 14.1666L15.3391 14.1666V14.1666H15.5391ZM18.168 11.5377L18.168 11.7377C19.5093 11.7379 20.5969 12.8253 20.5969 14.1666L20.7969 14.1666L20.9969 14.1666C20.9969 12.6043 19.7302 11.3379 18.168 11.3377L18.168 11.5377ZM20.7969 14.1666H20.5969C20.5969 14.4498 20.5459 14.7216 20.456 14.9759L20.6446 15.0426L20.8331 15.1093C20.9372 14.8151 20.9969 14.4983 20.9969 14.1666H20.7969ZM20.6446 15.0426V15.2426H20.7969V15.0426V14.8426H20.6446V15.0426ZM20.7969 15.0426L20.7969 15.2426C21.8962 15.2427 22.7873 16.1345 22.7873 17.234H22.9873H23.1873C23.1873 15.9138 22.1173 14.8427 20.7969 14.8426L20.7969 15.0426ZM22.9873 17.234L22.7873 17.234C22.7872 18.3333 21.8962 19.2243 20.7969 19.2244L20.7969 19.4244L20.7969 19.6244C22.1171 19.6243 23.1872 18.5542 23.1873 17.234L22.9873 17.234ZM20.7969 19.4244V19.2244H15.5391V19.4244V19.6244H20.7969V19.4244ZM15.5391 19.4244V19.2244C15.4439 19.2244 15.3477 19.214 15.2469 19.1992L15.2178 19.3971L15.1887 19.595C15.2978 19.611 15.4158 19.6244 15.5391 19.6244V19.4244ZM15.2178 19.3971L15.1901 19.199C15.0839 19.2139 14.9826 19.2244 14.8818 19.2244L14.8819 19.4244L14.8819 19.6244C15.0095 19.6244 15.1318 19.6111 15.2455 19.5952L15.2178 19.3971ZM14.8819 19.4244V19.2244C13.6614 19.2244 12.6717 18.2348 12.6717 17.0143H12.4717H12.2717C12.2717 18.4557 13.4405 19.6244 14.8819 19.6244V19.4244ZM12.4717 17.0143L12.6717 17.0143C12.6719 15.7941 13.6614 14.8051 14.8819 14.8051V14.6051V14.4051C13.4407 14.4051 12.2719 15.573 12.2717 17.0143L12.4717 17.0143ZM14.8819 14.6051L14.8818 14.8051C15.1102 14.8051 15.33 14.8396 15.5365 14.9036L15.5957 14.7125L15.6549 14.5215C15.4103 14.4457 15.1506 14.4051 14.8819 14.4051L14.8819 14.6051ZM15.5957 14.7125L15.7914 14.6712C15.7571 14.5087 15.7391 14.3399 15.7391 14.1666H15.5391H15.3391C15.3391 14.3677 15.36 14.5642 15.4 14.7539L15.5957 14.7125ZM15.5391 14.1666L15.7391 14.1666C15.7391 12.8252 16.8265 11.7377 18.168 11.7377V11.5377V11.3377C16.6056 11.3377 15.3391 12.6043 15.3391 14.1666L15.5391 14.1666Z" fill="#463B34"/>
<path d="M38.8208 15.8396L39.4501 14.1388L41.1509 13.5094L39.4501 12.88L38.8208 11.1792L38.1914 12.88L36.4906 13.5094L38.1914 14.1388L38.8208 15.8396Z" fill="white" stroke="#463B34" stroke-width="0.4"/>
<path d="M44.5566 23.0094L45.186 21.3086L46.8868 20.6792L45.186 20.0498L44.5566 18.349L43.9272 20.0498L42.2264 20.6792L43.9272 21.3086L44.5566 23.0094Z" fill="white" stroke="#463B34" stroke-width="0.4"/>
<path d="M29.4503 34.9979C33.427 34.9979 37.0364 35.5816 39.6584 36.5321C40.9683 37.007 42.0426 37.5774 42.7931 38.2206C43.543 38.8633 43.9894 39.5982 43.9894 40.3964C43.9894 41.1944 43.5428 41.9286 42.7931 42.5712C42.0426 43.2144 40.9683 43.7847 39.6584 44.2596C37.0364 45.2101 33.427 45.7948 29.4503 45.7948C25.4736 45.7948 21.8643 45.2101 19.2423 44.2596C17.9322 43.7847 16.8581 43.2144 16.1076 42.5712C15.3577 41.9285 14.9104 41.1945 14.9103 40.3964C14.9103 39.5982 15.3577 38.8633 16.1076 38.2206C16.8581 37.5775 17.9324 37.007 19.2423 36.5321C21.8643 35.5817 25.4737 34.9979 29.4503 34.9979Z" fill="#3F2410" stroke="black" stroke-width="0.4"/>
<mask id="path-10-outside-2_126_4" maskUnits="userSpaceOnUse" x="18.4124" y="27.7454" width="22" height="17" fill="black">
<rect fill="white" x="18.4124" y="27.7454" width="22" height="17"/>
<path d="M29.6292 28.7454C35.1277 28.7454 39.6096 29.889 39.8343 31.3215L39.9065 31.3372L38.2884 38.7981L38.2864 38.7971C37.6652 41.6317 34.189 43.802 29.9934 43.802C26.1798 43.8019 22.9617 42.0083 21.9407 39.553L21.9261 39.5579L21.8675 39.3713C21.8218 39.2468 21.7835 39.1201 21.7493 38.9924L19.5296 31.8645L19.5423 31.8606C19.4578 31.7214 19.4124 31.5793 19.4124 31.4338C19.4128 29.949 23.9871 28.7454 29.6292 28.7454Z"/>
</mask>
<path d="M29.6292 28.7454C35.1277 28.7454 39.6096 29.889 39.8343 31.3215L39.9065 31.3372L38.2884 38.7981L38.2864 38.7971C37.6652 41.6317 34.189 43.802 29.9934 43.802C26.1798 43.8019 22.9617 42.0083 21.9407 39.553L21.9261 39.5579L21.8675 39.3713C21.8218 39.2468 21.7835 39.1201 21.7493 38.9924L19.5296 31.8645L19.5423 31.8606C19.4578 31.7214 19.4124 31.5793 19.4124 31.4338C19.4128 29.949 23.9871 28.7454 29.6292 28.7454Z" fill="#6F4E37"/>
<path d="M29.6292 28.7454L29.6292 28.3454H29.6292V28.7454ZM39.8343 31.3215L39.4391 31.3835L39.4816 31.6545L39.7497 31.7125L39.8343 31.3215ZM39.9065 31.3372L40.2974 31.4219L40.3823 31.0308L39.9911 30.9462L39.9065 31.3372ZM38.2884 38.7981L38.1095 39.1559L38.5701 39.3862L38.6793 38.8829L38.2884 38.7981ZM38.2864 38.7971L38.4653 38.4393L38.0057 38.2095L37.8957 38.7115L38.2864 38.7971ZM29.9934 43.802L29.9934 44.202H29.9934V43.802ZM21.9407 39.553L22.31 39.3994L22.1672 39.0558L21.8142 39.1735L21.9407 39.553ZM21.9261 39.5579L21.5444 39.6777L21.6664 40.066L22.0525 39.9373L21.9261 39.5579ZM21.8675 39.3713L22.2491 39.2515L22.2463 39.2425L22.243 39.2337L21.8675 39.3713ZM21.7493 38.9924L22.1356 38.8888L22.1336 38.8811L22.1312 38.8735L21.7493 38.9924ZM19.5296 31.8645L19.4119 31.4822L19.0283 31.6002L19.1477 31.9834L19.5296 31.8645ZM19.5423 31.8606L19.6599 32.2429L20.1506 32.0919L19.8842 31.653L19.5423 31.8606ZM19.4124 31.4338L19.0124 31.4337V31.4338H19.4124ZM29.6292 28.7454L29.6292 29.1454C32.3546 29.1454 34.8153 29.4292 36.6112 29.884C37.5113 30.112 38.2255 30.3783 38.719 30.6616C39.2341 30.9573 39.4127 31.2151 39.4391 31.3835L39.8343 31.3215L40.2294 31.2596C40.1435 30.7117 39.6776 30.2894 39.1173 29.9678C38.5354 29.6337 37.7434 29.3455 36.8076 29.1085C34.9318 28.6334 32.4023 28.3454 29.6292 28.3454L29.6292 28.7454ZM39.8343 31.3215L39.7497 31.7125L39.822 31.7281L39.9065 31.3372L39.9911 30.9462L39.9188 30.9306L39.8343 31.3215ZM39.9065 31.3372L39.5156 31.2524L37.8974 38.7133L38.2884 38.7981L38.6793 38.8829L40.2974 31.4219L39.9065 31.3372ZM38.2884 38.7981L38.4672 38.4403L38.4653 38.4393L38.2864 38.7971L38.1075 39.1549L38.1095 39.1559L38.2884 38.7981ZM38.2864 38.7971L37.8957 38.7115C37.6145 39.9944 36.6775 41.1642 35.2721 42.021C33.8693 42.8762 32.0247 43.402 29.9934 43.402V43.802V44.202C32.1578 44.202 34.149 43.6426 35.6885 42.7041C37.2254 41.7671 38.3371 40.4345 38.6771 38.8827L38.2864 38.7971ZM29.9934 43.802L29.9934 43.402C26.2754 43.4019 23.2471 41.6527 22.31 39.3994L21.9407 39.553L21.5714 39.7066C22.6764 42.3638 26.0843 44.2019 29.9934 44.202L29.9934 43.802ZM21.9407 39.553L21.8142 39.1735L21.7996 39.1784L21.9261 39.5579L22.0525 39.9373L22.0672 39.9325L21.9407 39.553ZM21.9261 39.5579L22.3077 39.438L22.2491 39.2515L21.8675 39.3713L21.4858 39.4912L21.5444 39.6777L21.9261 39.5579ZM21.8675 39.3713L22.243 39.2337C22.2026 39.1234 22.1678 39.0086 22.1356 38.8888L21.7493 38.9924L21.363 39.0961C21.3993 39.2315 21.441 39.3701 21.4919 39.509L21.8675 39.3713ZM21.7493 38.9924L22.1312 38.8735L19.9115 31.7456L19.5296 31.8645L19.1477 31.9834L21.3674 39.1114L21.7493 38.9924ZM19.5296 31.8645L19.6472 32.2468L19.6599 32.2429L19.5423 31.8606L19.4246 31.4783L19.4119 31.4822L19.5296 31.8645ZM19.5423 31.8606L19.8842 31.653C19.8298 31.5635 19.8124 31.4923 19.8124 31.4338H19.4124H19.0124C19.0124 31.6663 19.0857 31.8793 19.2003 32.0682L19.5423 31.8606ZM19.4124 31.4338L19.8124 31.4339C19.8124 31.2814 19.9367 31.0319 20.4268 30.727C20.8956 30.4354 21.6005 30.1582 22.5069 29.9196C24.314 29.4441 26.8323 29.1454 29.6292 29.1454V28.7454V28.3454C26.784 28.3454 24.1941 28.6484 22.3034 29.146C21.361 29.3939 20.5696 29.696 20.0042 30.0477C19.4602 30.3861 19.0125 30.8438 19.0124 31.4337L19.4124 31.4338Z" fill="black" mask="url(#path-10-outside-2_126_4)"/>
<path d="M29.6795 28.587C32.5384 28.5871 35.1196 28.8871 36.9803 29.3683C37.9121 29.6093 38.6521 29.8924 39.1541 30.1993C39.6676 30.5133 39.8757 30.8152 39.8758 31.0753C39.8758 31.3355 39.6677 31.6373 39.1541 31.9513C38.652 32.2583 37.9122 32.5423 36.9803 32.7833C35.1196 33.2645 32.5383 33.5646 29.6795 33.5646C26.8205 33.5646 24.2385 33.2645 22.3777 32.7833C21.446 32.5423 20.7059 32.2583 20.2039 31.9513C19.6906 31.6373 19.4832 31.3354 19.4832 31.0753C19.4833 30.8152 19.6906 30.5133 20.2039 30.1993C20.7059 29.8924 21.4461 29.6093 22.3777 29.3683C24.2385 28.8871 26.8205 28.587 29.6795 28.587Z" fill="#A07E66" stroke="black" stroke-width="0.4"/>
<mask id="path-13-outside-3_126_4" maskUnits="userSpaceOnUse" x="25.736" y="20.2925" width="7" height="10" fill="black">
<rect fill="white" x="25.736" y="20.2925" width="7" height="10"/>
<path d="M31.6016 22.8306L31.6104 22.8579C31.723 23.1958 31.7803 23.5496 31.7803 23.9058C31.7803 24.2501 31.6442 24.5805 31.4014 24.8247L31.376 24.8491C31.03 25.3026 30.391 25.8699 29.6289 26.4155C29.2401 26.8367 28.9274 27.1776 28.6758 27.4507C28.5983 27.5696 28.5005 27.7027 28.375 27.8491C28.3477 27.9115 28.3169 27.9696 28.2861 28.0249L28.0938 28.4116C28.0424 28.5144 27.9983 28.6209 27.9619 28.73L27.9502 28.7642C27.8752 28.9893 27.8369 29.2251 27.8369 29.4624L27.4238 29.187C27.3409 29.1317 27.2638 29.068 27.1934 28.9976L27.1787 28.9829C27.0225 28.8267 26.9048 28.6358 26.835 28.4263C26.792 28.2974 26.7676 28.1634 26.7627 28.0278C26.7117 27.7848 26.7326 27.4935 26.834 27.2007C26.9292 26.7011 27.6784 25.851 28.7393 25.0913C29.1362 24.8071 29.5314 24.5682 29.8965 24.3843L30.0303 24.2954C30.2405 24.1552 30.4365 23.9946 30.6152 23.8159L30.7178 23.7134C30.8283 23.6029 30.928 23.482 31.0147 23.3521C31.1656 23.1257 31.2768 22.8748 31.3428 22.6108L31.4219 22.2925L31.6016 22.8306Z"/>
</mask>
<path d="M31.6016 22.8306L31.6104 22.8579C31.723 23.1958 31.7803 23.5496 31.7803 23.9058C31.7803 24.2501 31.6442 24.5805 31.4014 24.8247L31.376 24.8491C31.03 25.3026 30.391 25.8699 29.6289 26.4155C29.2401 26.8367 28.9274 27.1776 28.6758 27.4507C28.5983 27.5696 28.5005 27.7027 28.375 27.8491C28.3477 27.9115 28.3169 27.9696 28.2861 28.0249L28.0938 28.4116C28.0424 28.5144 27.9983 28.6209 27.9619 28.73L27.9502 28.7642C27.8752 28.9893 27.8369 29.2251 27.8369 29.4624L27.4238 29.187C27.3409 29.1317 27.2638 29.068 27.1934 28.9976L27.1787 28.9829C27.0225 28.8267 26.9048 28.6358 26.835 28.4263C26.792 28.2974 26.7676 28.1634 26.7627 28.0278C26.7117 27.7848 26.7326 27.4935 26.834 27.2007C26.9292 26.7011 27.6784 25.851 28.7393 25.0913C29.1362 24.8071 29.5314 24.5682 29.8965 24.3843L30.0303 24.2954C30.2405 24.1552 30.4365 23.9946 30.6152 23.8159L30.7178 23.7134C30.8283 23.6029 30.928 23.482 31.0147 23.3521C31.1656 23.1257 31.2768 22.8748 31.3428 22.6108L31.4219 22.2925L31.6016 22.8306Z" fill="#D9C6B9"/>
<path d="M31.6016 22.8306L31.9824 22.7082L31.981 22.7039L31.6016 22.8306ZM31.6104 22.8579L31.2295 22.9803L31.2309 22.9844L31.6104 22.8579ZM31.7803 23.9058L32.1803 23.9058V23.9058L31.7803 23.9058ZM31.4014 24.8247L31.6787 25.1131L31.685 25.1067L31.4014 24.8247ZM31.376 24.8491L31.0987 24.5608L31.0766 24.5821L31.058 24.6065L31.376 24.8491ZM29.6289 26.4155L29.396 26.0903L29.3628 26.1141L29.335 26.1442L29.6289 26.4155ZM28.6758 27.4507L28.3816 27.1796L28.359 27.2042L28.3407 27.2322L28.6758 27.4507ZM28.375 27.8491L28.0713 27.5888L28.0324 27.6342L28.0085 27.6889L28.375 27.8491ZM28.2861 28.0249L27.9366 27.8305L27.9321 27.8385L27.928 27.8467L28.2861 28.0249ZM28.0938 28.4116L28.4515 28.5905L28.4519 28.5898L28.0938 28.4116ZM27.9619 28.73L28.3403 28.8597L28.3414 28.8565L27.9619 28.73ZM27.9502 28.7642L27.5718 28.6344L27.5707 28.6378L27.9502 28.7642ZM27.8369 29.4624L27.615 29.7952L28.2369 30.2098L28.2369 29.4624L27.8369 29.4624ZM27.4238 29.187L27.6457 28.8542L27.6457 28.8542L27.4238 29.187ZM27.1934 28.9976L26.9105 29.2804H26.9105L27.1934 28.9976ZM27.1787 28.9829L27.4616 28.7001L27.1787 28.9829ZM26.835 28.4263L26.4555 28.5527L26.4555 28.5528L26.835 28.4263ZM26.7627 28.0278L27.1624 28.0134L27.1612 27.9792L27.1542 27.9457L26.7627 28.0278ZM26.834 27.2007L27.212 27.3315L27.2215 27.3041L27.2269 27.2756L26.834 27.2007ZM28.7393 25.0913L28.5064 24.7661L28.5064 24.7661L28.7393 25.0913ZM29.8965 24.3843L30.0765 24.7415L30.0979 24.7307L30.1178 24.7175L29.8965 24.3843ZM30.0303 24.2954L30.2516 24.6286L30.2522 24.6282L30.0303 24.2954ZM30.6152 23.8159L30.3324 23.5331V23.5331L30.6152 23.8159ZM30.7178 23.7134L31.0006 23.9962V23.9962L30.7178 23.7134ZM31.0147 23.3521L31.3474 23.574L31.3475 23.5739L31.0147 23.3521ZM31.3428 22.6108L31.7308 22.7079L31.731 22.7073L31.3428 22.6108ZM31.4219 22.2925L31.8013 22.1658L31.3655 20.8607L31.0337 22.196L31.4219 22.2925ZM31.6016 22.8306L31.2208 22.953L31.2295 22.9803L31.6104 22.8579L31.9912 22.7355L31.9824 22.7082L31.6016 22.8306ZM31.6104 22.8579L31.2309 22.9844C31.3299 23.2814 31.3803 23.5926 31.3803 23.9058L31.7803 23.9058L32.1803 23.9058C32.1803 23.5067 32.1161 23.1101 31.9898 22.7314L31.6104 22.8579ZM31.7803 23.9058L31.3803 23.9057C31.3803 24.1446 31.2859 24.3736 31.1177 24.5427L31.4014 24.8247L31.685 25.1067C32.0025 24.7875 32.1802 24.3556 32.1803 23.9058L31.7803 23.9058ZM31.4014 24.8247L31.1241 24.5364L31.0987 24.5608L31.376 24.8491L31.6532 25.1375L31.6786 25.113L31.4014 24.8247ZM31.376 24.8491L31.058 24.6065C30.7476 25.0133 30.146 25.5533 29.396 26.0903L29.6289 26.4155L29.8618 26.7408C30.6359 26.1864 31.3124 25.5919 31.694 25.0917L31.376 24.8491ZM29.6289 26.4155L29.335 26.1442C28.9463 26.5653 28.6323 26.9076 28.3816 27.1796L28.6758 27.4507L28.97 27.7217C29.2226 27.4476 29.534 27.1081 29.9228 26.6868L29.6289 26.4155ZM28.6758 27.4507L28.3407 27.2322C28.2728 27.3364 28.1855 27.4556 28.0713 27.5888L28.375 27.8491L28.6787 28.1094C28.8155 27.9498 28.9238 27.8027 29.0109 27.6691L28.6758 27.4507ZM28.375 27.8491L28.0085 27.6889C27.9888 27.734 27.9651 27.7793 27.9366 27.8305L28.2861 28.0249L28.6357 28.2193C28.6688 28.1598 28.7067 28.0889 28.7415 28.0094L28.375 27.8491ZM28.2861 28.0249L27.928 27.8467L27.7356 28.2335L28.0938 28.4116L28.4519 28.5898L28.6443 28.2031L28.2861 28.0249ZM28.0938 28.4116L27.736 28.2327C27.6761 28.3525 27.6248 28.4766 27.5824 28.6035L27.9619 28.73L28.3414 28.8565C28.3718 28.7653 28.4086 28.6763 28.4515 28.5905L28.0938 28.4116ZM27.9619 28.73L27.5835 28.6003L27.5718 28.6344L27.9502 28.7642L28.3286 28.8939L28.3403 28.8597L27.9619 28.73ZM27.9502 28.7642L27.5707 28.6378C27.4822 28.9036 27.4369 29.1821 27.4369 29.4624L27.8369 29.4624L28.2369 29.4624C28.2369 29.2681 28.2683 29.075 28.3297 28.8906L27.9502 28.7642ZM27.8369 29.4624L28.0588 29.1296L27.6457 28.8542L27.4238 29.187L27.202 29.5198L27.615 29.7952L27.8369 29.4624ZM27.4238 29.187L27.6457 28.8542C27.5856 28.8141 27.5288 28.7673 27.4762 28.7147L27.1934 28.9976L26.9105 29.2804C26.9988 29.3687 27.0963 29.4494 27.202 29.5198L27.4238 29.187ZM27.1934 28.9976L27.4762 28.7147L27.4616 28.7001L27.1787 28.9829L26.8959 29.2658L26.9105 29.2804L27.1934 28.9976ZM27.1787 28.9829L27.4616 28.7001C27.3495 28.588 27.2647 28.4507 27.2144 28.2998L26.835 28.4263L26.4555 28.5528C26.5449 28.821 26.6956 29.0654 26.8959 29.2658L27.1787 28.9829ZM26.835 28.4263L27.2145 28.2998C27.1834 28.2067 27.1659 28.1104 27.1624 28.0134L26.7627 28.0278L26.363 28.0422C26.3692 28.2164 26.4006 28.3881 26.4555 28.5527L26.835 28.4263ZM26.7627 28.0278L27.1542 27.9457C27.1202 27.7836 27.1308 27.5662 27.212 27.3315L26.834 27.2007L26.456 27.0698C26.3345 27.4209 26.3033 27.7861 26.3712 28.1099L26.7627 28.0278ZM26.834 27.2007L27.2269 27.2756C27.2528 27.14 27.3982 26.8719 27.7223 26.5106C28.0315 26.1658 28.4613 25.7824 28.9721 25.4165L28.7393 25.0913L28.5064 24.7661C27.9564 25.1599 27.4811 25.5814 27.1267 25.9765C26.7872 26.355 26.5104 26.7618 26.4411 27.1258L26.834 27.2007ZM28.7393 25.0913L28.9721 25.4165C29.3537 25.1434 29.7313 24.9154 30.0765 24.7415L29.8965 24.3843L29.7165 24.0271C29.3315 24.2211 28.9187 24.4709 28.5064 24.7661L28.7393 25.0913ZM29.8965 24.3843L30.1178 24.7175L30.2516 24.6286L30.0303 24.2954L29.809 23.9622L29.6752 24.0511L29.8965 24.3843ZM30.0303 24.2954L30.2522 24.6282C30.4843 24.4734 30.7007 24.2961 30.8981 24.0988L30.6152 23.8159L30.3324 23.5331C30.1724 23.6931 29.9968 23.837 29.8084 23.9626L30.0303 24.2954ZM30.6152 23.8159L30.8981 24.0988L31.0006 23.9962L30.7178 23.7134L30.4349 23.4305L30.3324 23.5331L30.6152 23.8159ZM30.7178 23.7134L31.0006 23.9962C31.1291 23.8677 31.2457 23.7265 31.3474 23.574L31.0147 23.3521L30.6819 23.1301C30.6102 23.2375 30.5274 23.3381 30.4349 23.4305L30.7178 23.7134ZM31.0147 23.3521L31.3475 23.5739C31.5237 23.3096 31.6537 23.0164 31.7308 22.7079L31.3428 22.6108L30.9547 22.5138C30.8999 22.7331 30.8074 22.9418 30.6818 23.1302L31.0147 23.3521ZM31.3428 22.6108L31.731 22.7073L31.8101 22.3889L31.4219 22.2925L31.0337 22.196L30.9546 22.5144L31.3428 22.6108ZM31.4219 22.2925L31.0425 22.4192L31.2222 22.9573L31.6016 22.8306L31.981 22.7039L31.8013 22.1658L31.4219 22.2925Z" fill="black" mask="url(#path-13-outside-3_126_4)"/>
<mask id="path-15-outside-4_126_4" maskUnits="userSpaceOnUse" x="27.0162" y="28.6415" width="7" height="4" fill="black">
<rect fill="white" x="27.0162" y="28.6415" width="7" height="4"/>
<path d="M28.0162 29.6415C28.4907 29.8787 29.0024 30.0337 29.5289 30.0995L30.1675 30.1796L31.4673 30.3231C31.4881 30.3238 31.5089 30.3229 31.5298 30.3241C31.7541 30.3365 31.9639 30.3763 32.149 30.4315C32.2672 30.4436 32.3909 30.4755 32.5113 30.5331C32.9264 30.7315 33.1476 31.134 33.0054 31.4325C32.9255 31.5996 32.7479 31.6958 32.5347 31.7157C32.3263 31.7647 31.9924 31.7568 31.4566 31.6464C31.2807 31.6366 31.1139 31.6091 30.9605 31.5721L30.5377 31.5126C30.1726 31.4604 29.8161 31.36 29.4771 31.2147L29.0201 31.0194C28.8307 30.9382 28.658 30.8213 28.5123 30.6757C28.3049 30.4682 28.1577 30.2082 28.0865 29.9237L28.0162 29.6415Z"/>
</mask>
<path d="M28.0162 29.6415C28.4907 29.8787 29.0024 30.0337 29.5289 30.0995L30.1675 30.1796L31.4673 30.3231C31.4881 30.3238 31.5089 30.3229 31.5298 30.3241C31.7541 30.3365 31.9639 30.3763 32.149 30.4315C32.2672 30.4436 32.3909 30.4755 32.5113 30.5331C32.9264 30.7315 33.1476 31.134 33.0054 31.4325C32.9255 31.5996 32.7479 31.6958 32.5347 31.7157C32.3263 31.7647 31.9924 31.7568 31.4566 31.6464C31.2807 31.6366 31.1139 31.6091 30.9605 31.5721L30.5377 31.5126C30.1726 31.4604 29.8161 31.36 29.4771 31.2147L29.0201 31.0194C28.8307 30.9382 28.658 30.8213 28.5123 30.6757C28.3049 30.4682 28.1577 30.2082 28.0865 29.9237L28.0162 29.6415Z" fill="#C9B2A3"/>
<path d="M28.0162 29.6415L28.1951 29.2837L27.418 28.8952L27.628 29.7382L28.0162 29.6415ZM29.5289 30.0995L29.5786 29.7026L29.5785 29.7026L29.5289 30.0995ZM30.1675 30.1796L30.1178 30.5765L30.1236 30.5771L30.1675 30.1796ZM31.4673 30.3231L31.4234 30.7207L31.4385 30.7224L31.4536 30.7229L31.4673 30.3231ZM31.5298 30.3241L31.552 29.9247L31.552 29.9247L31.5298 30.3241ZM32.149 30.4315L32.0346 30.8148L32.0708 30.8256L32.1084 30.8295L32.149 30.4315ZM32.5113 30.5331L32.6838 30.1722L32.6838 30.1722L32.5113 30.5331ZM33.0054 31.4325L33.3663 31.605L33.3666 31.6045L33.0054 31.4325ZM32.5347 31.7157L32.4975 31.3174L32.4701 31.32L32.4433 31.3263L32.5347 31.7157ZM31.4566 31.6464L31.5374 31.2546L31.5084 31.2486L31.4788 31.247L31.4566 31.6464ZM30.9605 31.5721L31.0542 31.1833L31.0354 31.1787L31.0163 31.1761L30.9605 31.5721ZM30.5377 31.5126L30.4811 31.9085L30.4819 31.9087L30.5377 31.5126ZM29.4771 31.2147L29.6347 30.8471L29.6343 30.8469L29.4771 31.2147ZM29.0201 31.0194L28.8625 31.3871L28.8629 31.3872L29.0201 31.0194ZM28.5123 30.6757L28.2294 30.9585L28.2294 30.9585L28.5123 30.6757ZM28.0865 29.9237L27.6984 30.0204L27.6985 30.0208L28.0865 29.9237ZM28.0162 29.6415L27.8373 29.9992C28.3524 30.2568 28.9078 30.425 29.4793 30.4964L29.5289 30.0995L29.5785 29.7026C29.097 29.6424 28.629 29.5007 28.1951 29.2837L28.0162 29.6415ZM29.5289 30.0995L29.4791 30.4964L30.1178 30.5765L30.1675 30.1796L30.2173 29.7827L29.5786 29.7026L29.5289 30.0995ZM30.1675 30.1796L30.1236 30.5771L31.4234 30.7207L31.4673 30.3231L31.5113 29.9255L30.2115 29.782L30.1675 30.1796ZM31.4673 30.3231L31.4536 30.7229C31.4723 30.7235 31.4911 30.7234 31.4981 30.7234C31.5083 30.7235 31.5091 30.7236 31.5077 30.7235L31.5298 30.3241L31.552 29.9247C31.5296 29.9235 31.5096 29.9235 31.4989 29.9234C31.4851 29.9234 31.4831 29.9234 31.4811 29.9234L31.4673 30.3231ZM31.5298 30.3241L31.5077 30.7235C31.699 30.7341 31.8779 30.7681 32.0346 30.8148L32.149 30.4315L32.2633 30.0482C32.0499 29.9845 31.8091 29.939 31.552 29.9247L31.5298 30.3241ZM32.149 30.4315L32.1084 30.8295C32.1839 30.8372 32.2626 30.8575 32.3388 30.894L32.5113 30.5331L32.6838 30.1722C32.5191 30.0935 32.3505 30.05 32.1896 30.0336L32.149 30.4315ZM32.5113 30.5331L32.3388 30.894C32.4794 30.9612 32.572 31.0564 32.6168 31.1379C32.662 31.2201 32.6459 31.257 32.6443 31.2605L33.0054 31.4325L33.3666 31.6045C33.5071 31.3094 33.4516 30.9959 33.3179 30.7526C33.1838 30.5087 32.9583 30.3034 32.6838 30.1722L32.5113 30.5331ZM33.0054 31.4325L32.6445 31.26C32.643 31.2632 32.6383 31.2722 32.6181 31.284C32.5958 31.2971 32.5565 31.3119 32.4975 31.3174L32.5347 31.7157L32.572 32.114C32.8732 32.0858 33.2062 31.94 33.3663 31.605L33.0054 31.4325ZM32.5347 31.7157L32.4433 31.3263C32.322 31.3548 32.0584 31.362 31.5374 31.2546L31.4566 31.6464L31.3758 32.0381C31.9264 32.1517 32.3305 32.1746 32.6262 32.1051L32.5347 31.7157ZM31.4566 31.6464L31.4788 31.247C31.3302 31.2387 31.1875 31.2154 31.0542 31.1833L30.9605 31.5721L30.8669 31.961C31.0402 32.0028 31.2311 32.0345 31.4344 32.0457L31.4566 31.6464ZM30.9605 31.5721L31.0163 31.1761L30.5935 31.1165L30.5377 31.5126L30.4819 31.9087L30.9047 31.9682L30.9605 31.5721ZM30.5377 31.5126L30.5943 31.1166C30.2642 31.0694 29.9416 30.9786 29.6347 30.8471L29.4771 31.2147L29.3195 31.5824C29.6905 31.7414 30.0809 31.8513 30.4811 31.9085L30.5377 31.5126ZM29.4771 31.2147L29.6343 30.8469L29.1773 30.6516L29.0201 31.0194L28.8629 31.3872L29.3199 31.5825L29.4771 31.2147ZM29.0201 31.0194L29.1776 30.6518C29.035 30.5906 28.9048 30.5025 28.7951 30.3928L28.5123 30.6757L28.2294 30.9585C28.4111 31.1402 28.6264 31.2859 28.8625 31.3871L29.0201 31.0194ZM28.5123 30.6757L28.7952 30.3929C28.639 30.2367 28.5281 30.0409 28.4745 29.8266L28.0865 29.9237L27.6985 30.0208C27.7872 30.3756 27.9708 30.6998 28.2294 30.9585L28.5123 30.6757ZM28.0865 29.9237L28.4746 29.827L28.4043 29.5448L28.0162 29.6415L27.628 29.7382L27.6984 30.0204L28.0865 29.9237Z" fill="black" mask="url(#path-15-outside-4_126_4)"/>
<path d="M16.8971 34.4597C17.165 34.2864 17.6444 34.2778 18.3111 34.65C18.9559 35.0101 19.6575 35.6717 20.235 36.5626C20.8123 37.4535 21.1293 38.3635 21.1946 39.099C21.2622 39.8597 21.0586 40.2937 20.791 40.4674C20.5231 40.641 20.0432 40.6501 19.3762 40.2776C18.7315 39.9176 18.0302 39.2566 17.4528 38.3659C16.8753 37.4749 16.5579 36.5643 16.4926 35.8286C16.4251 35.0677 16.6293 34.6333 16.8971 34.4597Z" stroke="#6F4E37"/>
<path d="M16.6532 34.1114C17.0933 33.8262 17.7436 33.8752 18.48 34.2762C19.2086 34.6729 19.9751 35.3925 20.5945 36.3481C21.2138 37.3036 21.5577 38.2972 21.6223 39.1243C21.6876 39.9602 21.4667 40.5739 21.0267 40.8591C20.5866 41.1442 19.9362 41.0952 19.1999 40.6943C18.4713 40.2976 17.7056 39.5774 17.0863 38.6219C16.4669 37.6664 16.1223 36.6733 16.0576 35.8462C15.9924 35.0104 16.2133 34.3967 16.6532 34.1114Z" stroke="black" stroke-width="0.4"/>
<path d="M16.9124 34.5092C17.2353 34.2999 17.7517 34.352 18.3769 34.7272C18.9894 35.0949 19.6467 35.7421 20.1937 36.5859C20.7405 37.4297 21.0628 38.294 21.1484 39.0033C21.2356 39.7272 21.0723 40.2198 20.7494 40.4292C20.4264 40.6385 19.91 40.5864 19.2849 40.2111C18.6724 39.8434 18.015 39.1963 17.4681 38.3525C16.9211 37.5086 16.5989 36.6443 16.5133 35.935C16.4261 35.2111 16.5894 34.7185 16.9124 34.5092Z" stroke="black" stroke-width="0.4"/>
</svg>
