<svg width="89" height="90" viewBox="0 0 89 90" fill="none" xmlns="http://www.w3.org/2000/svg">
<circle cx="44.5" cy="45" r="44" stroke="#463B34"/>
<circle cx="44.5" cy="45" r="43.5" fill="#ACD0D6"/>
<mask id="path-3-outside-1_258_571" maskUnits="userSpaceOnUse" x="3.48245" y="53.5757" width="82" height="36" fill="black">
<rect fill="white" x="3.48245" y="53.5757" width="82" height="36"/>
<path d="M44.2266 54.5757C60.016 54.5757 74.2734 57.5337 84.4258 62.2866C77.7389 77.7097 62.3811 88.5005 44.5 88.5005C26.5377 88.5005 11.1204 77.612 4.48245 62.0767C14.6037 57.4471 28.6717 54.5757 44.2266 54.5757Z"/>
</mask>
<path d="M44.2266 54.5757C60.016 54.5757 74.2734 57.5337 84.4258 62.2866C77.7389 77.7097 62.3811 88.5005 44.5 88.5005C26.5377 88.5005 11.1204 77.612 4.48245 62.0767C14.6037 57.4471 28.6717 54.5757 44.2266 54.5757Z" fill="#536654"/>
<path d="M44.2266 54.5757V54.1757V54.5757ZM84.4258 62.2866L84.7928 62.4457L84.9474 62.0891L84.5954 61.9244L84.4258 62.2866ZM44.5 88.5005V88.9005V88.5005ZM4.48245 62.0767L4.31607 61.7129L3.96137 61.8752L4.11462 62.2338L4.48245 62.0767ZM44.2266 54.5757V54.9757C59.9721 54.9757 74.1688 57.9263 84.2562 62.6489L84.4258 62.2866L84.5954 61.9244C74.3781 57.141 60.0599 54.1757 44.2266 54.1757V54.5757ZM84.4258 62.2866L84.0588 62.1275C77.4331 77.4097 62.216 88.1005 44.5 88.1005V88.5005V88.9005C62.5462 88.9005 78.0448 78.0098 84.7928 62.4457L84.4258 62.2866ZM44.5 88.5005V88.1005C26.7036 88.1005 11.4275 77.3129 4.85028 61.9195L4.48245 62.0767L4.11462 62.2338C10.8132 77.9112 26.3719 88.9005 44.5 88.9005V88.5005ZM4.48245 62.0767L4.64884 62.4404C14.7065 57.8399 28.7152 54.9757 44.2266 54.9757V54.5757V54.1757C28.6281 54.1757 14.5008 57.0543 4.31607 61.7129L4.48245 62.0767Z" fill="#463B34" mask="url(#path-3-outside-1_258_571)"/>
<path d="M27.2037 16.8208C29.4196 16.821 31.2155 18.6176 31.2155 20.8335C31.2155 21.3024 31.1347 21.7522 30.9869 22.1704H31.2155C33.0622 22.1704 34.5592 23.6684 34.5592 25.5151C34.5589 27.3617 33.062 28.8589 31.2155 28.8589H23.191C23.0239 28.8589 22.8594 28.8455 22.6989 28.8218C22.5317 28.845 22.3607 28.8589 22.1871 28.8589C20.1559 28.8586 18.5094 27.2114 18.5094 25.1802C18.5096 23.1491 20.1561 21.5027 22.1871 21.5024C22.5663 21.5024 22.9328 21.559 23.277 21.6655C23.2204 21.3971 23.191 21.1188 23.191 20.8335C23.191 18.6174 24.9876 16.8208 27.2037 16.8208Z" fill="white"/>
<path d="M27.2037 16.8208L27.2038 16.6208H27.2037V16.8208ZM31.2155 20.8335H31.4155H31.2155ZM30.9869 22.1704L30.7984 22.1038L30.7042 22.3704H30.9869V22.1704ZM34.5592 25.5151L34.7592 25.5152V25.5151H34.5592ZM22.6989 28.8218L22.728 28.6239L22.6997 28.6197L22.6713 28.6237L22.6989 28.8218ZM22.1871 28.8589L22.1871 29.0589H22.1871V28.8589ZM18.5094 25.1802L18.3094 25.1802V25.1802H18.5094ZM22.1871 21.5024V21.3024H22.1871L22.1871 21.5024ZM23.277 21.6655L23.2178 21.8566L23.5429 21.9572L23.4727 21.6243L23.277 21.6655ZM23.191 20.8335H22.991H23.191ZM27.2037 16.8208L27.2037 17.0208C29.3091 17.021 31.0155 18.728 31.0155 20.8335H31.2155H31.4155C31.4155 18.5071 29.5301 16.621 27.2038 16.6208L27.2037 16.8208ZM31.2155 20.8335H31.0155C31.0155 21.2792 30.9387 21.7065 30.7984 22.1038L30.9869 22.1704L31.1755 22.237C31.3307 21.7978 31.4155 21.3255 31.4155 20.8335H31.2155ZM30.9869 22.1704V22.3704H31.2155V22.1704V21.9704H30.9869V22.1704ZM31.2155 22.1704V22.3704C32.9517 22.3704 34.3592 23.7788 34.3592 25.5151H34.5592H34.7592C34.7592 23.558 33.1727 21.9704 31.2155 21.9704V22.1704ZM34.5592 25.5151L34.3592 25.5151C34.359 27.2512 32.9516 28.6589 31.2155 28.6589V28.8589V29.0589C33.1725 29.0589 34.7589 27.4721 34.7592 25.5152L34.5592 25.5151ZM31.2155 28.8589V28.6589H23.191V28.8589V29.0589H31.2155V28.8589ZM23.191 28.8589V28.6589C23.0346 28.6589 22.8799 28.6463 22.728 28.6239L22.6989 28.8218L22.6697 29.0196C22.8389 29.0446 23.0132 29.0589 23.191 29.0589V28.8589ZM22.6989 28.8218L22.6713 28.6237C22.5118 28.6459 22.3501 28.6589 22.1871 28.6589V28.8589V29.0589C22.3713 29.0589 22.5516 29.0442 22.7264 29.0199L22.6989 28.8218ZM22.1871 28.8589L22.1872 28.6589C20.2664 28.6586 18.7094 27.101 18.7094 25.1802H18.5094H18.3094C18.3094 27.3218 20.0454 29.0586 22.1871 29.0589L22.1871 28.8589ZM18.5094 25.1802L18.7094 25.1802C18.7096 23.2596 20.2665 21.7027 22.1872 21.7024L22.1871 21.5024L22.1871 21.3024C20.0456 21.3027 18.3096 23.0386 18.3094 25.1802L18.5094 25.1802ZM22.1871 21.5024V21.7024C22.5464 21.7024 22.8929 21.756 23.2178 21.8566L23.277 21.6655L23.3361 21.4745C22.9727 21.362 22.5863 21.3024 22.1871 21.3024V21.5024ZM23.277 21.6655L23.4727 21.6243C23.419 21.3695 23.391 21.105 23.391 20.8335H23.191H22.991C22.991 21.1325 23.0218 21.4247 23.0813 21.7068L23.277 21.6655ZM23.191 20.8335H23.391C23.391 18.7279 25.0981 17.0208 27.2037 17.0208V16.8208V16.6208C24.8772 16.6208 22.991 18.507 22.991 20.8335H23.191Z" fill="#463B34"/>
<path d="M58.7265 23.3867L59.6871 20.7907L62.2831 19.8301L59.6871 18.8695L58.7265 16.2735L57.7659 18.8695L55.1699 19.8301L57.7659 20.7907L58.7265 23.3867Z" fill="white" stroke="#463B34" stroke-width="0.4"/>
<path d="M67.4812 34.3298L68.4418 31.7338L71.0378 30.7732L68.4418 29.8126L67.4812 27.2166L66.5206 29.8126L63.9246 30.7732L66.5206 31.7338L67.4812 34.3298Z" fill="white" stroke="#463B34" stroke-width="0.4"/>
<path d="M44.4238 52.7336C50.4846 52.7336 55.9809 53.624 59.9687 55.0696C61.9614 55.792 63.5882 56.6568 64.7206 57.6272C65.8523 58.5971 66.5105 59.6916 66.5107 60.8674C66.5107 62.0434 65.8524 63.1377 64.7206 64.1077C63.5882 65.0782 61.9616 65.9438 59.9687 66.6663C55.9809 68.1118 50.4846 69.0022 44.4238 69.0022C38.3632 69.0022 32.8675 68.1117 28.8798 66.6663C26.8868 65.9438 25.2594 65.0782 24.1269 64.1077C22.9952 63.1377 22.3369 62.0433 22.3369 60.8674C22.337 59.6916 22.9952 58.5971 24.1269 57.6272C25.2594 56.6567 26.8869 55.792 28.8798 55.0696C32.8675 53.6241 38.3631 52.7336 44.4238 52.7336Z" fill="#3F2410" stroke="black" stroke-width="0.4"/>
<mask id="path-10-outside-2_258_571" maskUnits="userSpaceOnUse" x="28.1031" y="42.0847" width="33" height="25" fill="black">
<rect fill="white" x="28.1031" y="42.0847" width="33" height="25"/>
<path d="M44.6968 43.0847C53.0893 43.0848 59.9317 44.8299 60.2749 47.0164L60.3843 47.0398L57.9146 58.4285L57.9107 58.4275C56.962 62.7536 51.6568 66.0651 45.2534 66.0652C39.4324 66.0652 34.5188 63.3285 32.9605 59.5808L32.939 59.5876L32.8413 59.2742C32.7703 59.0777 32.7073 58.8789 32.6548 58.6775L29.2818 47.8455L29.2993 47.8396C29.1707 47.6274 29.1031 47.41 29.1031 47.1882C29.1036 44.9219 36.0851 43.0847 44.6968 43.0847Z"/>
</mask>
<path d="M44.6968 43.0847C53.0893 43.0848 59.9317 44.8299 60.2749 47.0164L60.3843 47.0398L57.9146 58.4285L57.9107 58.4275C56.962 62.7536 51.6568 66.0651 45.2534 66.0652C39.4324 66.0652 34.5188 63.3285 32.9605 59.5808L32.939 59.5876L32.8413 59.2742C32.7703 59.0777 32.7073 58.8789 32.6548 58.6775L29.2818 47.8455L29.2993 47.8396C29.1707 47.6274 29.1031 47.41 29.1031 47.1882C29.1036 44.9219 36.0851 43.0847 44.6968 43.0847Z" fill="#6F4E37"/>
<path d="M44.6968 43.0847L44.6968 42.6847H44.6968V43.0847ZM60.2749 47.0164L59.8798 47.0784L59.9224 47.3499L60.1911 47.4075L60.2749 47.0164ZM60.3843 47.0398L60.7752 47.1246L60.8602 46.7327L60.4681 46.6487L60.3843 47.0398ZM57.9146 58.4285L57.8176 58.8165L58.218 58.9166L58.3055 58.5132L57.9146 58.4285ZM57.9107 58.4275L58.0077 58.0394L57.6082 57.9396L57.52 58.3418L57.9107 58.4275ZM45.2534 66.0652V66.4652H45.2535L45.2534 66.0652ZM32.9605 59.5808L33.3298 59.4272L33.1889 59.0884L32.8392 59.1996L32.9605 59.5808ZM32.939 59.5876L32.5571 59.7066L32.6768 60.0908L33.0603 59.9688L32.939 59.5876ZM32.8413 59.2742L33.2232 59.1552L33.2206 59.1466L33.2175 59.1381L32.8413 59.2742ZM32.6548 58.6775L33.0419 58.5767L33.0395 58.5676L33.0367 58.5586L32.6548 58.6775ZM29.2818 47.8455L29.1553 47.466L28.7833 47.59L28.8999 47.9644L29.2818 47.8455ZM29.2993 47.8396L29.4258 48.2191L29.9011 48.0606L29.6414 47.6322L29.2993 47.8396ZM29.1031 47.1882L28.7031 47.1881V47.1882H29.1031ZM44.6968 43.0847L44.6968 43.4847C48.8692 43.4847 52.6435 43.9189 55.4061 44.6184C56.7896 44.9687 57.9005 45.3808 58.6771 45.8266C59.4755 46.2847 59.8237 46.7215 59.8798 47.0784L60.2749 47.0164L60.6701 46.9543C60.5545 46.218 59.9188 45.6167 59.0753 45.1327C58.2102 44.6362 57.0216 44.2022 55.6025 43.8429C52.76 43.1231 48.9169 42.6847 44.6968 42.6847L44.6968 43.0847ZM60.2749 47.0164L60.1911 47.4075L60.3005 47.4309L60.3843 47.0398L60.4681 46.6487L60.3587 46.6252L60.2749 47.0164ZM60.3843 47.0398L59.9934 46.955L57.5237 58.3437L57.9146 58.4285L58.3055 58.5132L60.7752 47.1246L60.3843 47.0398ZM57.9146 58.4285L58.0116 58.0404L58.0077 58.0394L57.9107 58.4275L57.8137 58.8155L57.8176 58.8165L57.9146 58.4285ZM57.9107 58.4275L57.52 58.3418C57.0751 60.3704 55.599 62.1985 53.4194 63.5271C51.2424 64.854 48.3886 65.6652 45.2534 65.6652L45.2534 66.0652L45.2535 66.4652C48.5216 66.4652 51.5221 65.6205 53.8358 64.2102C56.1468 62.8014 57.7976 60.8106 58.3014 58.5132L57.9107 58.4275ZM45.2534 66.0652V65.6652C39.5279 65.6652 34.8041 62.9729 33.3298 59.4272L32.9605 59.5808L32.5911 59.7344C34.2335 63.6842 39.337 66.4652 45.2534 66.4652V66.0652ZM32.9605 59.5808L32.8392 59.1996L32.8177 59.2065L32.939 59.5876L33.0603 59.9688L33.0818 59.962L32.9605 59.5808ZM32.939 59.5876L33.3209 59.4687L33.2232 59.1552L32.8413 59.2742L32.4594 59.3931L32.5571 59.7066L32.939 59.5876ZM32.8413 59.2742L33.2175 59.1381C33.15 58.9516 33.0908 58.7647 33.0419 58.5767L32.6548 58.6775L32.2677 58.7783C32.3237 58.9932 32.3905 59.2037 32.4652 59.4102L32.8413 59.2742ZM32.6548 58.6775L33.0367 58.5586L29.6637 47.7265L29.2818 47.8455L28.8999 47.9644L32.2729 58.7964L32.6548 58.6775ZM29.2818 47.8455L29.4083 48.2249L29.4258 48.2191L29.2993 47.8396L29.1729 47.4601L29.1553 47.466L29.2818 47.8455ZM29.2993 47.8396L29.6414 47.6322C29.544 47.4715 29.5031 47.3249 29.5031 47.1882H29.1031H28.7031C28.7031 47.495 28.7974 47.7833 28.9573 48.047L29.2993 47.8396ZM29.1031 47.1882L29.5031 47.1883C29.5031 46.8404 29.7779 46.4048 30.5401 45.9306C31.281 45.4697 32.3796 45.04 33.7725 44.6734C36.5526 43.9419 40.4151 43.4847 44.6968 43.4847V43.0847V42.6847C40.3669 42.6847 36.4327 43.1462 33.569 43.8998C32.14 44.2758 30.9549 44.7303 30.1175 45.2513C29.3014 45.759 28.7032 46.4029 28.7031 47.1881L29.1031 47.1882Z" fill="black" mask="url(#path-10-outside-2_258_571)"/>
<path d="M44.7737 42.7378C49.1436 42.7378 53.0928 43.1958 55.9437 43.9331C57.3706 44.3021 58.5114 44.7381 59.2903 45.2144C60.0807 45.6976 60.4416 46.1856 60.4417 46.6411C60.4417 47.0966 60.0806 47.5846 59.2903 48.0679C58.5114 48.5442 57.3706 48.9801 55.9437 49.3491C53.0928 50.0864 49.1436 50.5454 44.7737 50.5454C40.4038 50.5454 36.4538 50.0864 33.6028 49.3491C32.1762 48.9801 31.036 48.5441 30.2571 48.0679C29.4667 47.5845 29.1058 47.0967 29.1058 46.6411C29.1059 46.1856 29.4668 45.6976 30.2571 45.2144C31.036 44.7382 32.1762 44.3021 33.6028 43.9331C36.4538 43.1958 40.4038 42.7378 44.7737 42.7378Z" fill="#A07E66" stroke="black" stroke-width="0.4"/>
<mask id="path-13-outside-3_258_571" maskUnits="userSpaceOnUse" x="39.2817" y="31.2358" width="10" height="14" fill="black">
<rect fill="white" x="39.2817" y="31.2358" width="10" height="14"/>
<path d="M47.7063 34.0562L47.7209 34.0991C47.8927 34.6146 47.9807 35.1544 47.9807 35.6978C47.9807 36.2234 47.7723 36.7284 47.4016 37.1011L47.3625 37.1392C46.8344 37.8311 45.8599 38.6955 44.6975 39.5278C44.0991 40.1761 43.6205 40.702 43.2346 41.1206C43.1173 41.2991 42.9701 41.4984 42.7825 41.7173C42.7429 41.8079 42.698 41.8922 42.6536 41.9731L42.3528 42.5757C42.2744 42.7325 42.2071 42.8947 42.1516 43.061L42.134 43.1128C42.0194 43.4565 41.9612 43.8168 41.9612 44.1792L41.3313 43.7593C41.2048 43.6749 41.0863 43.5777 40.9787 43.4702L40.9563 43.4478C40.7179 43.2094 40.5375 42.9189 40.4309 42.5991C40.3652 42.402 40.3299 42.1961 40.3225 41.9888C40.2449 41.618 40.2762 41.1738 40.4309 40.7271C40.5765 39.9645 41.72 38.6677 43.3391 37.5083C43.9447 37.0747 44.5476 36.71 45.1047 36.4292L45.3088 36.2935C45.6299 36.0794 45.9295 35.8339 46.2024 35.561L46.3586 35.4048C46.5274 35.2361 46.6794 35.0506 46.8118 34.8521C47.042 34.5066 47.2111 34.124 47.3118 33.7212L47.4329 33.2358L47.7063 34.0562Z"/>
</mask>
<path d="M47.7063 34.0562L47.7209 34.0991C47.8927 34.6146 47.9807 35.1544 47.9807 35.6978C47.9807 36.2234 47.7723 36.7284 47.4016 37.1011L47.3625 37.1392C46.8344 37.8311 45.8599 38.6955 44.6975 39.5278C44.0991 40.1761 43.6205 40.702 43.2346 41.1206C43.1173 41.2991 42.9701 41.4984 42.7825 41.7173C42.7429 41.8079 42.698 41.8922 42.6536 41.9731L42.3528 42.5757C42.2744 42.7325 42.2071 42.8947 42.1516 43.061L42.134 43.1128C42.0194 43.4565 41.9612 43.8168 41.9612 44.1792L41.3313 43.7593C41.2048 43.6749 41.0863 43.5777 40.9787 43.4702L40.9563 43.4478C40.7179 43.2094 40.5375 42.9189 40.4309 42.5991C40.3652 42.402 40.3299 42.1961 40.3225 41.9888C40.2449 41.618 40.2762 41.1738 40.4309 40.7271C40.5765 39.9645 41.72 38.6677 43.3391 37.5083C43.9447 37.0747 44.5476 36.71 45.1047 36.4292L45.3088 36.2935C45.6299 36.0794 45.9295 35.8339 46.2024 35.561L46.3586 35.4048C46.5274 35.2361 46.6794 35.0506 46.8118 34.8521C47.042 34.5066 47.2111 34.124 47.3118 33.7212L47.4329 33.2358L47.7063 34.0562Z" fill="#D9C6B9"/>
<path d="M47.7063 34.0562L47.3268 34.1826L47.3277 34.1852L47.7063 34.0562ZM47.7209 34.0991L48.1004 33.9727L48.0995 33.9701L47.7209 34.0991ZM47.9807 35.6978L48.3807 35.6978V35.6977L47.9807 35.6978ZM47.4016 37.1011L47.6809 37.3875L47.6852 37.3831L47.4016 37.1011ZM47.3625 37.1392L47.0833 36.8528L47.0623 36.8732L47.0446 36.8964L47.3625 37.1392ZM44.6975 39.5278L44.4646 39.2026L44.4313 39.2264L44.4036 39.2565L44.6975 39.5278ZM43.2346 41.1206L42.9405 40.8495L42.9183 40.8736L42.9003 40.901L43.2346 41.1206ZM42.7825 41.7173L42.4788 41.457L42.4399 41.5023L42.416 41.557L42.7825 41.7173ZM42.6536 41.9731L42.3031 41.7804L42.2992 41.7874L42.2957 41.7945L42.6536 41.9731ZM42.3528 42.5757L42.7105 42.7546L42.7107 42.7543L42.3528 42.5757ZM42.1516 43.061L42.5304 43.1897L42.5311 43.1876L42.1516 43.061ZM42.134 43.1128L41.7553 42.9842L41.7546 42.9863L42.134 43.1128ZM41.9612 44.1792L41.7393 44.512L42.3611 44.9266L42.3612 44.1792L41.9612 44.1792ZM41.3313 43.7593L41.5532 43.4265L41.5532 43.4265L41.3313 43.7593ZM40.9787 43.4702L40.6959 43.7531H40.6959L40.9787 43.4702ZM40.9563 43.4478L41.2391 43.1649H41.2391L40.9563 43.4478ZM40.4309 42.5991L40.0514 42.7256L40.0514 42.7257L40.4309 42.5991ZM40.3225 41.9888L40.7222 41.9746L40.721 41.9404L40.714 41.9069L40.3225 41.9888ZM40.4309 40.7271L40.8089 40.8579L40.8184 40.8305L40.8238 40.8021L40.4309 40.7271ZM43.3391 37.5083L43.1062 37.1831L43.1062 37.1831L43.3391 37.5083ZM45.1047 36.4292L45.2847 36.7864L45.3062 36.7756L45.3262 36.7623L45.1047 36.4292ZM45.3088 36.2935L45.5303 36.6265L45.5307 36.6263L45.3088 36.2935ZM46.2024 35.561L45.9195 35.2782L46.2024 35.561ZM46.3586 35.4048L46.6415 35.6876L46.3586 35.4048ZM46.8118 34.8521L47.1446 35.0739L47.1446 35.0739L46.8118 34.8521ZM47.3118 33.7212L47.6998 33.8182L47.6999 33.818L47.3118 33.7212ZM47.4329 33.2358L47.8123 33.1093L47.3776 31.8051L47.0447 33.139L47.4329 33.2358ZM47.7063 34.0562L47.3277 34.1852L47.3423 34.2282L47.7209 34.0991L48.0995 33.9701L48.0849 33.9271L47.7063 34.0562ZM47.7209 34.0991L47.3415 34.2256C47.4997 34.7005 47.5807 35.1976 47.5807 35.6978L47.9807 35.6978L48.3807 35.6977C48.3807 35.1112 48.2857 34.5287 48.1004 33.9727L47.7209 34.0991ZM47.9807 35.6978L47.5807 35.6977C47.5807 36.1177 47.4142 36.5212 47.118 36.819L47.4016 37.1011L47.6852 37.3831C48.1304 36.9355 48.3807 36.3292 48.3807 35.6978L47.9807 35.6978ZM47.4016 37.1011L47.1224 36.8147L47.0833 36.8528L47.3625 37.1392L47.6418 37.4256L47.6808 37.3875L47.4016 37.1011ZM47.3625 37.1392L47.0446 36.8964C46.552 37.5417 45.615 38.3789 44.4646 39.2026L44.6975 39.5278L44.9304 39.8531C46.1048 39.0121 47.1167 38.1204 47.6805 37.3819L47.3625 37.1392ZM44.6975 39.5278L44.4036 39.2565C43.8093 39.9003 43.3198 40.438 42.9405 40.8495L43.2346 41.1206L43.5287 41.3917C43.9211 40.966 44.3889 40.4519 44.9914 39.7991L44.6975 39.5278ZM43.2346 41.1206L42.9003 40.901C42.7925 41.0651 42.6555 41.2507 42.4788 41.457L42.7825 41.7173L43.0862 41.9776C43.2846 41.746 43.4422 41.5332 43.5689 41.3402L43.2346 41.1206ZM42.7825 41.7173L42.416 41.557C42.3838 41.6306 42.3461 41.7022 42.3031 41.7804L42.6536 41.9731L43.004 42.1659C43.05 42.0823 43.1019 41.9852 43.149 41.8775L42.7825 41.7173ZM42.6536 41.9731L42.2957 41.7945L41.9949 42.397L42.3528 42.5757L42.7107 42.7543L43.0114 42.1518L42.6536 41.9731ZM42.3528 42.5757L41.995 42.3968C41.9082 42.5704 41.8336 42.7501 41.7721 42.9345L42.1516 43.061L42.5311 43.1876C42.5805 43.0393 42.6405 42.8946 42.7105 42.7546L42.3528 42.5757ZM42.1516 43.061L41.7728 42.9324L41.7553 42.9842L42.134 43.1128L42.5128 43.2414L42.5304 43.1897L42.1516 43.061ZM42.134 43.1128L41.7546 42.9863C41.6263 43.371 41.5612 43.774 41.5612 44.1792L41.9612 44.1792L42.3612 44.1792C42.3612 43.8597 42.4126 43.5421 42.5135 43.2393L42.134 43.1128ZM41.9612 44.1792L42.1831 43.8464L41.5532 43.4265L41.3313 43.7593L41.1094 44.0921L41.7393 44.512L41.9612 44.1792ZM41.3313 43.7593L41.5532 43.4265C41.4486 43.3568 41.3505 43.2763 41.2616 43.1874L40.9787 43.4702L40.6959 43.7531C40.822 43.8792 40.9609 43.9931 41.1094 44.0921L41.3313 43.7593ZM40.9787 43.4702L41.2616 43.1874L41.2391 43.1649L40.9563 43.4478L40.6734 43.7306L40.6959 43.7531L40.9787 43.4702ZM40.9563 43.4478L41.2391 43.1649C41.0443 42.9701 40.8972 42.7329 40.8104 42.4726L40.4309 42.5991L40.0514 42.7257C40.1779 43.1049 40.3916 43.4488 40.6734 43.7306L40.9563 43.4478ZM40.4309 42.5991L40.8104 42.4726C40.7575 42.314 40.7283 42.1461 40.7222 41.9746L40.3225 41.9888L39.9228 42.0029C39.9314 42.2462 39.9729 42.4901 40.0514 42.7256L40.4309 42.5991ZM40.3225 41.9888L40.714 41.9069C40.6533 41.6164 40.6745 41.246 40.8089 40.8579L40.4309 40.7271L40.0529 40.5962C39.8779 41.1015 39.8366 41.6195 39.931 42.0707L40.3225 41.9888ZM40.4309 40.7271L40.8238 40.8021C40.8748 40.5349 41.1314 40.0895 41.6302 39.5336C42.1141 38.9943 42.782 38.3992 43.572 37.8335L43.3391 37.5083L43.1062 37.1831C42.2771 37.7767 41.5637 38.4097 41.0347 38.9993C40.5205 39.5724 40.1326 40.1566 40.038 40.652L40.4309 40.7271ZM43.3391 37.5083L43.572 37.8335C44.1623 37.4108 44.7476 37.0571 45.2847 36.7864L45.1047 36.4292L44.9247 36.072C44.3476 36.3628 43.7272 36.7385 43.1062 37.1831L43.3391 37.5083ZM45.1047 36.4292L45.3262 36.7623L45.5303 36.6265L45.3088 36.2935L45.0873 35.9604L44.8832 36.0961L45.1047 36.4292ZM45.3088 36.2935L45.5307 36.6263C45.8737 36.3976 46.1937 36.1354 46.4852 35.8439L46.2024 35.561L45.9195 35.2782C45.6653 35.5324 45.3862 35.7611 45.0869 35.9606L45.3088 36.2935ZM46.2024 35.561L46.4852 35.8439L46.6415 35.6876L46.3586 35.4048L46.0758 35.1219L45.9195 35.2782L46.2024 35.561ZM46.3586 35.4048L46.6415 35.6876C46.8288 35.5003 46.9976 35.2944 47.1446 35.0739L46.8118 34.8521L46.4789 34.6302C46.3612 34.8068 46.2259 34.9718 46.0758 35.1219L46.3586 35.4048ZM46.8118 34.8521L47.1446 35.0739C47.4003 34.6902 47.588 34.2653 47.6998 33.8182L47.3118 33.7212L46.9237 33.6242C46.8341 33.9826 46.6837 34.323 46.4789 34.6302L46.8118 34.8521ZM47.3118 33.7212L47.6999 33.818L47.821 33.3327L47.4329 33.2358L47.0447 33.139L46.9237 33.6244L47.3118 33.7212ZM47.4329 33.2358L47.0534 33.3623L47.3268 34.1826L47.7063 34.0562L48.0858 33.9297L47.8123 33.1093L47.4329 33.2358Z" fill="black" mask="url(#path-13-outside-3_258_571)"/>
<mask id="path-15-outside-4_258_571" maskUnits="userSpaceOnUse" x="41.2352" y="43.4529" width="10" height="5" fill="black">
<rect fill="white" x="41.2352" y="43.4529" width="10" height="5"/>
<path d="M42.2352 44.4529C42.9595 44.815 43.7403 45.0517 44.5438 45.1521L45.5184 45.2732L47.4706 45.49C47.5129 45.4911 47.5556 45.4925 47.5985 45.4949C47.9433 45.514 48.2666 45.5717 48.5506 45.657C48.7289 45.676 48.9151 45.7265 49.0965 45.8132C49.7304 46.1162 50.0672 46.7315 49.8495 47.1873C49.724 47.4497 49.4421 47.6015 49.1043 47.6257C48.7845 47.6933 48.2806 47.6763 47.4862 47.5125C47.211 47.4972 46.9496 47.4569 46.7108 47.3982L46.0848 47.3083C45.5274 47.2287 44.9823 47.0761 44.4647 46.8542L43.7674 46.5554C43.4784 46.4315 43.2154 46.2534 42.993 46.031C42.6763 45.7142 42.4513 45.3171 42.3426 44.8826L42.2352 44.4529Z"/>
</mask>
<path d="M42.2352 44.4529C42.9595 44.815 43.7403 45.0517 44.5438 45.1521L45.5184 45.2732L47.4706 45.49C47.5129 45.4911 47.5556 45.4925 47.5985 45.4949C47.9433 45.514 48.2666 45.5717 48.5506 45.657C48.7289 45.676 48.9151 45.7265 49.0965 45.8132C49.7304 46.1162 50.0672 46.7315 49.8495 47.1873C49.724 47.4497 49.4421 47.6015 49.1043 47.6257C48.7845 47.6933 48.2806 47.6763 47.4862 47.5125C47.211 47.4972 46.9496 47.4569 46.7108 47.3982L46.0848 47.3083C45.5274 47.2287 44.9823 47.0761 44.4647 46.8542L43.7674 46.5554C43.4784 46.4315 43.2154 46.2534 42.993 46.031C42.6763 45.7142 42.4513 45.3171 42.3426 44.8826L42.2352 44.4529Z" fill="#C9B2A3"/>
<path d="M42.2352 44.4529L42.4141 44.0951L41.6362 43.7062L41.8471 44.5499L42.2352 44.4529ZM44.5438 45.1521L44.4942 45.549L44.4945 45.549L44.5438 45.1521ZM45.5184 45.2732L45.4691 45.6702L45.4743 45.6707L45.5184 45.2732ZM47.4706 45.49L47.4264 45.8875L47.443 45.8894L47.4597 45.8898L47.4706 45.49ZM47.5985 45.4949L47.6206 45.0955L47.6206 45.0955L47.5985 45.4949ZM48.5506 45.657L48.4355 46.0401L48.4712 46.0508L48.5082 46.0547L48.5506 45.657ZM49.0965 45.8132L49.269 45.4523L49.269 45.4523L49.0965 45.8132ZM49.8495 47.1873L50.2103 47.3598L50.2104 47.3597L49.8495 47.1873ZM49.1043 47.6257L49.0757 47.2268L49.0485 47.2287L49.0217 47.2344L49.1043 47.6257ZM47.4862 47.5125L47.567 47.1207L47.5379 47.1147L47.5084 47.1131L47.4862 47.5125ZM46.7108 47.3982L46.8063 47.0098L46.7871 47.0051L46.7676 47.0023L46.7108 47.3982ZM46.0848 47.3083L46.1416 46.9124L46.1414 46.9124L46.0848 47.3083ZM44.4647 46.8542L44.6223 46.4866L44.4647 46.8542ZM43.7674 46.5554L43.6099 46.9231L43.7674 46.5554ZM42.993 46.031L42.7101 46.3138L42.7102 46.3138L42.993 46.031ZM42.3426 44.8826L41.9546 44.9796L42.3426 44.8826ZM42.2352 44.4529L42.0563 44.8107C42.8211 45.193 43.6456 45.4429 44.4942 45.549L44.5438 45.1521L44.5934 44.7552C43.835 44.6604 43.0979 44.437 42.4141 44.0951L42.2352 44.4529ZM44.5438 45.1521L44.4945 45.549L45.4691 45.6701L45.5184 45.2732L45.5677 44.8762L44.5931 44.7552L44.5438 45.1521ZM45.5184 45.2732L45.4743 45.6707L47.4264 45.8875L47.4706 45.49L47.5147 45.0924L45.5626 44.8756L45.5184 45.2732ZM47.4706 45.49L47.4597 45.8898C47.5012 45.891 47.5393 45.8922 47.5763 45.8943L47.5985 45.4949L47.6206 45.0955C47.5719 45.0928 47.5246 45.0913 47.4814 45.0901L47.4706 45.49ZM47.5985 45.4949L47.5763 45.8943C47.8913 45.9117 48.1833 45.9643 48.4355 46.0401L48.5506 45.657L48.6657 45.2739C48.3499 45.179 47.9954 45.1163 47.6206 45.0955L47.5985 45.4949ZM48.5506 45.657L48.5082 46.0547C48.6418 46.069 48.784 46.1072 48.924 46.1741L49.0965 45.8132L49.269 45.4523C49.0463 45.3459 48.816 45.283 48.5931 45.2592L48.5506 45.657ZM49.0965 45.8132L48.924 46.1741C49.1738 46.2935 49.3499 46.4679 49.4416 46.6351C49.5336 46.8031 49.5278 46.9325 49.4885 47.0148L49.8495 47.1873L50.2104 47.3597C50.3889 46.9862 50.3236 46.5802 50.1432 46.2508C49.9624 45.9207 49.6531 45.6359 49.269 45.4523L49.0965 45.8132ZM49.8495 47.1873L49.4886 47.0147C49.4441 47.1077 49.3203 47.2092 49.0757 47.2268L49.1043 47.6257L49.1329 48.0247C49.564 47.9938 50.0039 47.7917 50.2103 47.3598L49.8495 47.1873ZM49.1043 47.6257L49.0217 47.2344C48.7845 47.2844 48.3466 47.2814 47.567 47.1207L47.4862 47.5125L47.4054 47.9042C48.2146 48.0711 48.7845 48.1021 49.187 48.0171L49.1043 47.6257ZM47.4862 47.5125L47.5084 47.1131C47.2577 47.0991 47.0209 47.0625 46.8063 47.0098L46.7108 47.3982L46.6153 47.7866C46.8783 47.8513 47.1642 47.8952 47.464 47.9118L47.4862 47.5125ZM46.7108 47.3982L46.7676 47.0023L46.1416 46.9124L46.0848 47.3083L46.028 47.7043L46.654 47.7941L46.7108 47.3982ZM46.0848 47.3083L46.1414 46.9124C45.6186 46.8377 45.1075 46.6945 44.6223 46.4866L44.4647 46.8542L44.3071 47.2219C44.8571 47.4576 45.4361 47.6197 46.0282 47.7043L46.0848 47.3083ZM44.4647 46.8542L44.6223 46.4866L43.925 46.1878L43.7674 46.5554L43.6099 46.9231L44.3071 47.2219L44.4647 46.8542ZM43.7674 46.5554L43.925 46.1878C43.6828 46.084 43.4623 45.9346 43.2759 45.7482L42.993 46.031L42.7102 46.3138C42.9685 46.5721 43.274 46.7791 43.6099 46.9231L43.7674 46.5554ZM42.993 46.031L43.2759 45.7482C43.0103 45.4826 42.8217 45.1497 42.7307 44.7856L42.3426 44.8826L41.9546 44.9796C42.0808 45.4846 42.3423 45.9459 42.7101 46.3138L42.993 46.031ZM42.3426 44.8826L42.7307 44.7856L42.6233 44.3559L42.2352 44.4529L41.8471 44.5499L41.9546 44.9796L42.3426 44.8826Z" fill="black" mask="url(#path-15-outside-4_258_571)"/>
<path d="M25.1207 51.586C25.6517 51.2421 26.5005 51.2804 27.5512 51.8669C28.5797 52.4412 29.6792 53.4841 30.5791 54.8724C31.4791 56.261 31.9824 57.6911 32.0866 58.8645C32.193 60.0631 31.8813 60.8535 31.3505 61.1978C30.8195 61.542 29.9701 61.5041 28.9193 60.9174C27.8907 60.3431 26.7908 59.2996 25.8908 57.9111C24.991 56.5227 24.4881 55.0932 24.3838 53.9198C24.2774 52.721 24.5897 51.9302 25.1207 51.586Z" stroke="#6F4E37"/>
<path d="M24.8342 51.1869C25.5536 50.7207 26.5921 50.8142 27.7302 51.4338C28.8605 52.0492 30.0421 53.1621 30.9951 54.6325C31.948 56.1028 32.4815 57.6359 32.5817 58.919C32.6824 60.2107 32.3437 61.1971 31.6244 61.6633C30.9051 62.1292 29.8664 62.0359 28.7285 61.4164C27.5982 60.801 26.4174 59.6875 25.4644 58.2172C24.5114 56.7469 23.9772 55.2143 23.877 53.9312C23.7761 52.6395 24.1152 51.6533 24.8342 51.1869Z" stroke="black" stroke-width="0.4"/>
<path d="M25.2298 51.7938C25.7752 51.4403 26.6123 51.5461 27.5762 52.1246C28.5276 52.6957 29.5421 53.6963 30.3837 54.9948C31.2254 56.2933 31.7244 57.6279 31.8572 58.7296C31.9917 59.8459 31.7464 60.653 31.201 61.0065C30.6555 61.36 29.8186 61.2544 28.8546 60.6758C27.9031 60.1046 26.8886 59.1041 26.047 57.8056C25.2054 56.5071 24.7064 55.1724 24.5736 54.0707C24.4391 52.9546 24.6845 52.1473 25.2298 51.7938Z" stroke="black" stroke-width="0.4"/>
</svg>
